<svg xmlns="http://www.w3.org/2000/svg" viewBox="0 0 128 128" role="img" aria-label="Questit icon">
  <rect width="128" height="128" rx="24" fill="#ffffff" />
  <g fill="#111827">
    <path d="M20 28h12v72H20zM96 20h12v24H96z" opacity=".9" />
    <path d="M34 64c0-16.016 12.984-29 29-29 6.442 0 12.186 2.03 16.629 5.894v-5.894h17v78h-17v-5.806C75.073 111.231 69.37 113 63 113c-16.016 0-29-12.983-29-29Zm45 0c0-9.665-7.729-17.5-17-17.5S45 54.335 45 64s7.729 17.5 17 17.5 17-7.835 17-17.5ZM92 30h12v12H92z" />
    <circle cx="98" cy="36" r="10" />
  </g>
  <g fill="none" stroke="#111827" stroke-width="8" stroke-linecap="square">
    <path d="M20 24v24" />
    <path d="M20 80v24" />
    <path d="M108 20H84" />
    <path d="M108 108H84" />
  </g>
</svg>
