<svg xmlns="http://www.w3.org/2000/svg" xmlns:xlink="http://www.w3.org/1999/xlink" width="375" zoomAndPan="magnify" viewBox="0 0 281.25 93.749996" height="125" preserveAspectRatio="xMidYMid meet" version="1.0"><defs><g/><clipPath id="84d8190e63"><rect x="0" width="185" y="0" height="77"/></clipPath><clipPath id="32e3f11d3a"><path d="M 21 29 L 88 29 L 88 93.5 L 21 93.5 Z M 21 29 " clip-rule="nonzero"/></clipPath><clipPath id="5917e3808a"><path d="M 0.542969 56 L 66 56 L 66 64 L 0.542969 64 Z M 0.542969 56 " clip-rule="nonzero"/></clipPath><clipPath id="3e6f482ea5"><path d="M 4 1 L 12 1 L 12 64.5 L 4 64.5 Z M 4 1 " clip-rule="nonzero"/></clipPath><clipPath id="efcc298cf6"><rect x="0" width="67" y="0" height="65"/></clipPath><clipPath id="83db7602af"><path d="M 1 1 L 66.539062 1 L 66.539062 9 L 1 9 Z M 1 1 " clip-rule="nonzero"/></clipPath><clipPath id="85467bd65c"><path d="M 56 0 L 64 0 L 64 63.671875 L 56 63.671875 Z M 56 0 " clip-rule="nonzero"/></clipPath><clipPath id="8838ffc77d"><rect x="0" width="67" y="0" height="64"/></clipPath></defs><g transform="matrix(1, 0, 0, 1, 45, 9)"><g clip-path="url(#84d8190e63)"><g fill="#000000" fill-opacity="1"><g transform="translate(0.960893, 55.048829)"><g><path d="M 5.765625 -3.875 C 2.847656 -7.070312 1.390625 -10.976562 1.390625 -15.59375 C 1.390625 -20.207031 2.847656 -24.101562 5.765625 -27.28125 C 8.679688 -30.457031 12.382812 -32.046875 16.875 -32.046875 C 21 -32.046875 24.394531 -30.566406 27.0625 -27.609375 L 27.1875 -27.609375 L 27.1875 -31.125 L 37.8125 -31.125 L 37.8125 15.78125 L 27.0625 15.78125 L 27.0625 -2.96875 C 24.394531 -0.382812 21 0.90625 16.875 0.90625 C 12.382812 0.90625 8.679688 -0.6875 5.765625 -3.875 Z M 14.8125 -20.84375 C 13.476562 -19.488281 12.8125 -17.738281 12.8125 -15.59375 C 12.8125 -13.445312 13.507812 -11.6875 14.90625 -10.3125 C 16.300781 -8.9375 18.03125 -8.25 20.09375 -8.25 C 22.113281 -8.25 23.820312 -8.9375 25.21875 -10.3125 C 26.613281 -11.6875 27.3125 -13.445312 27.3125 -15.59375 C 27.3125 -17.695312 26.632812 -19.4375 25.28125 -20.8125 C 23.925781 -22.1875 22.195312 -22.875 20.09375 -22.875 C 17.90625 -22.875 16.144531 -22.195312 14.8125 -20.84375 Z M 14.8125 -20.84375 "/></g></g></g><g fill="#000000" fill-opacity="1"><g transform="translate(37.242538, 55.048829)"><g><path d="M 13.78125 -31.125 L 13.78125 -16.328125 C 13.78125 -13.253906 14.242188 -11.066406 15.171875 -9.765625 C 16.097656 -8.472656 17.675781 -7.828125 19.90625 -7.828125 C 22.132812 -7.828125 23.710938 -8.472656 24.640625 -9.765625 C 25.566406 -11.066406 26.03125 -13.253906 26.03125 -16.328125 L 26.03125 -31.125 L 36.78125 -31.125 L 36.78125 -13.71875 C 36.78125 -8.539062 35.429688 -4.804688 32.734375 -2.515625 C 30.046875 -0.234375 25.769531 0.90625 19.90625 0.90625 C 14.039062 0.90625 9.757812 -0.234375 7.0625 -2.515625 C 4.375 -4.804688 3.03125 -8.539062 3.03125 -13.71875 L 3.03125 -31.125 Z M 13.78125 -31.125 "/></g></g></g><g fill="#000000" fill-opacity="1"><g transform="translate(71.885983, 55.048829)"><g><path d="M 35.140625 -14.078125 L 12.5625 -14.078125 C 12.5625 -11.890625 13.269531 -10.269531 14.6875 -9.21875 C 16.101562 -8.164062 17.640625 -7.640625 19.296875 -7.640625 C 21.035156 -7.640625 22.410156 -7.875 23.421875 -8.34375 C 24.429688 -8.8125 25.585938 -9.734375 26.890625 -11.109375 L 34.65625 -7.21875 C 31.414062 -1.800781 26.035156 0.90625 18.515625 0.90625 C 13.816406 0.90625 9.785156 -0.695312 6.421875 -3.90625 C 3.066406 -7.125 1.390625 -11 1.390625 -15.53125 C 1.390625 -20.0625 3.066406 -23.945312 6.421875 -27.1875 C 9.785156 -30.425781 13.816406 -32.046875 18.515625 -32.046875 C 23.441406 -32.046875 27.453125 -30.617188 30.546875 -27.765625 C 33.648438 -24.910156 35.203125 -20.832031 35.203125 -15.53125 C 35.203125 -14.800781 35.179688 -14.316406 35.140625 -14.078125 Z M 12.859375 -20.03125 L 24.703125 -20.03125 C 24.453125 -21.644531 23.8125 -22.882812 22.78125 -23.75 C 21.75 -24.625 20.425781 -25.0625 18.8125 -25.0625 C 17.03125 -25.0625 15.613281 -24.59375 14.5625 -23.65625 C 13.507812 -22.726562 12.941406 -21.519531 12.859375 -20.03125 Z M 12.859375 -20.03125 "/></g></g></g><g fill="#000000" fill-opacity="1"><g transform="translate(103.313692, 55.048829)"><g><path d="M 17.171875 -32.046875 C 18.953125 -32.046875 20.710938 -31.84375 22.453125 -31.4375 C 24.191406 -31.03125 25.488281 -30.625 26.34375 -30.21875 L 27.609375 -29.609375 L 24.09375 -22.578125 C 21.664062 -23.867188 19.359375 -24.515625 17.171875 -24.515625 C 15.960938 -24.515625 15.101562 -24.382812 14.59375 -24.125 C 14.09375 -23.863281 13.84375 -23.367188 13.84375 -22.640625 C 13.84375 -22.472656 13.859375 -22.304688 13.890625 -22.140625 C 13.929688 -21.984375 14.015625 -21.832031 14.140625 -21.6875 C 14.265625 -21.550781 14.375 -21.429688 14.46875 -21.328125 C 14.570312 -21.234375 14.742188 -21.125 14.984375 -21 C 15.234375 -20.875 15.425781 -20.78125 15.5625 -20.71875 C 15.707031 -20.664062 15.941406 -20.578125 16.265625 -20.453125 C 16.585938 -20.328125 16.828125 -20.234375 16.984375 -20.171875 C 17.148438 -20.117188 17.425781 -20.03125 17.8125 -19.90625 C 18.195312 -19.78125 18.488281 -19.695312 18.6875 -19.65625 C 19.945312 -19.289062 21.039062 -18.882812 21.96875 -18.4375 C 22.894531 -18 23.875 -17.394531 24.90625 -16.625 C 25.9375 -15.851562 26.734375 -14.878906 27.296875 -13.703125 C 27.867188 -12.535156 28.15625 -11.203125 28.15625 -9.703125 C 28.15625 -2.628906 23.238281 0.90625 13.40625 0.90625 C 11.1875 0.90625 9.070312 0.5625 7.0625 -0.125 C 5.0625 -0.8125 3.617188 -1.5 2.734375 -2.1875 L 1.390625 -3.28125 L 5.765625 -10.625 C 6.085938 -10.34375 6.507812 -10.007812 7.03125 -9.625 C 7.5625 -9.238281 8.515625 -8.710938 9.890625 -8.046875 C 11.265625 -7.378906 12.457031 -7.046875 13.46875 -7.046875 C 15.695312 -7.046875 16.8125 -7.789062 16.8125 -9.28125 C 16.8125 -9.96875 16.523438 -10.503906 15.953125 -10.890625 C 15.390625 -11.273438 14.429688 -11.707031 13.078125 -12.1875 C 11.722656 -12.675781 10.660156 -13.125 9.890625 -13.53125 C 7.953125 -14.539062 6.414062 -15.679688 5.28125 -16.953125 C 4.144531 -18.234375 3.578125 -19.925781 3.578125 -22.03125 C 3.578125 -25.1875 4.800781 -27.644531 7.25 -29.40625 C 9.695312 -31.164062 13.003906 -32.046875 17.171875 -32.046875 Z M 17.171875 -32.046875 "/></g></g></g><g fill="#000000" fill-opacity="1"><g transform="translate(128.006573, 55.048829)"><g><path d="M 5.46875 -31.125 L 5.46875 -42.71875 L 16.203125 -42.71875 L 16.203125 -31.125 L 22.765625 -31.125 L 22.765625 -22.9375 L 16.203125 -22.9375 L 16.203125 -13.046875 C 16.203125 -10.171875 17.007812 -8.734375 18.625 -8.734375 C 19.03125 -8.734375 19.457031 -8.8125 19.90625 -8.96875 C 20.351562 -9.132812 20.695312 -9.300781 20.9375 -9.46875 L 21.296875 -9.703125 L 23.96875 -1.03125 C 21.664062 0.257812 19.035156 0.90625 16.078125 0.90625 C 14.054688 0.90625 12.316406 0.550781 10.859375 -0.15625 C 9.398438 -0.863281 8.296875 -1.8125 7.546875 -3 C 6.804688 -4.195312 6.273438 -5.453125 5.953125 -6.765625 C 5.628906 -8.078125 5.46875 -9.484375 5.46875 -10.984375 L 5.46875 -22.9375 L 0.96875 -22.9375 L 0.96875 -31.125 Z M 5.46875 -31.125 "/></g></g></g><g fill="#000000" fill-opacity="1"><g transform="translate(146.814053, 55.048829)"><g><path d="M 4.671875 -48.484375 C 5.921875 -49.742188 7.414062 -50.375 9.15625 -50.375 C 10.894531 -50.375 12.390625 -49.742188 13.640625 -48.484375 C 14.898438 -47.234375 15.53125 -45.738281 15.53125 -44 C 15.53125 -42.257812 14.898438 -40.757812 13.640625 -39.5 C 12.390625 -38.25 10.894531 -37.625 9.15625 -37.625 C 7.414062 -37.625 5.921875 -38.25 4.671875 -39.5 C 3.421875 -40.757812 2.796875 -42.257812 2.796875 -44 C 2.796875 -45.738281 3.421875 -47.234375 4.671875 -48.484375 Z M 3.640625 -31.125 L 3.640625 0 L 14.390625 0 L 14.390625 -31.125 Z M 3.640625 -31.125 "/></g></g></g><g fill="#000000" fill-opacity="1"><g transform="translate(159.978848, 55.048829)"><g><path d="M 5.46875 -31.125 L 5.46875 -42.71875 L 16.203125 -42.71875 L 16.203125 -31.125 L 22.765625 -31.125 L 22.765625 -22.9375 L 16.203125 -22.9375 L 16.203125 -13.046875 C 16.203125 -10.171875 17.007812 -8.734375 18.625 -8.734375 C 19.03125 -8.734375 19.457031 -8.8125 19.90625 -8.96875 C 20.351562 -9.132812 20.695312 -9.300781 20.9375 -9.46875 L 21.296875 -9.703125 L 23.96875 -1.03125 C 21.664062 0.257812 19.035156 0.90625 16.078125 0.90625 C 14.054688 0.90625 12.316406 0.550781 10.859375 -0.15625 C 9.398438 -0.863281 8.296875 -1.8125 7.546875 -3 C 6.804688 -4.195312 6.273438 -5.453125 5.953125 -6.765625 C 5.628906 -8.078125 5.46875 -9.484375 5.46875 -10.984375 L 5.46875 -22.9375 L 0.96875 -22.9375 L 0.96875 -31.125 Z M 5.46875 -31.125 "/></g></g></g></g></g><g clip-path="url(#32e3f11d3a)"><g transform="matrix(1, 0, 0, 1, 21, 29)"><g clip-path="url(#efcc298cf6)"><g clip-path="url(#5917e3808a)"><path stroke-linecap="butt" transform="matrix(0.688167, 0, 0, 0.688167, 4.181404, 56.372848)" fill="none" stroke-linejoin="miter" d="M -0.00249415 4.998278 L 84.432576 4.998278 " stroke="#292929" stroke-width="10" stroke-opacity="1" stroke-miterlimit="4"/></g><g clip-path="url(#3e6f482ea5)"><path stroke-linecap="butt" transform="matrix(0, 0.688167, -0.688167, 0, 11.059551, 4.444936)" fill="none" stroke-linejoin="miter" d="M 0.00054761 5.002218 L 82.46594 5.002218 " stroke="#292929" stroke-width="10" stroke-opacity="1" stroke-miterlimit="4"/></g></g></g></g><g transform="matrix(1, 0, 0, 1, 197, 0.000000000000013659)"><g clip-path="url(#8838ffc77d)"><g clip-path="url(#83db7602af)"><path stroke-linecap="butt" transform="matrix(-0.688167, 0, 0, -0.688167, 63.064223, 8.233879)" fill="none" stroke-linejoin="miter" d="M 0.00250438 5.000106 L 84.431899 5.000106 " stroke="#292929" stroke-width="10" stroke-opacity="1" stroke-miterlimit="4"/></g><g clip-path="url(#85467bd65c)"><path stroke-linecap="butt" transform="matrix(0, -0.688167, 0.688167, 0, 56.186082, 60.161791)" fill="none" stroke-linejoin="miter" d="M 0.0023759 4.997211 L 82.462092 4.997211 " stroke="#292929" stroke-width="10" stroke-opacity="1" stroke-miterlimit="4"/></g></g></g></svg>